<?xml version="1.0" standalone="no"?>
<!DOCTYPE svg PUBLIC "-//W3C//DTD SVG 20010904//EN"
 "http://www.w3.org/TR/2001/REC-SVG-20010904/DTD/svg10.dtd">
<svg version="1.0" xmlns="http://www.w3.org/2000/svg"
 width="505.000000pt" height="239.000000pt" viewBox="0 0 505.000000 239.000000"
 preserveAspectRatio="xMidYMid meet">
<metadata>
Created by potrace 1.16, written by Peter Selinger 2001-2019
</metadata>
<g transform="translate(0.000000,239.000000) scale(0.100000,-0.100000)"
fill="#f5f0e8" stroke="none">
<path d="M4322 2325 c-64 -18 -98 -44 -141 -106 -57 -83 -75 -155 -75 -314 -1
-134 0 -142 27 -192 27 -52 88 -103 121 -103 8 0 17 -4 21 -10 11 -17 -110
-237 -227 -412 -71 -106 -143 -192 -271 -325 -54 -56 -98 -105 -98 -110 2 -9
47 -7 146 8 148 23 241 64 317 142 71 73 260 372 359 568 21 44 44 79 49 79
24 0 31 -32 106 -470 18 -104 29 -149 42 -158 22 -16 229 -132 236 -132 14 0
3 84 -38 312 -59 329 -86 491 -86 527 0 28 4 32 45 42 57 14 59 36 5 45 -22 4
-43 12 -48 18 -18 24 -79 422 -69 449 3 9 32 33 64 54 116 77 78 94 -222 99
-164 3 -222 0 -263 -11z m33 -323 c16 -26 80 -96 142 -156 80 -77 110 -112
101 -118 -18 -11 -108 -10 -166 3 -59 12 -105 56 -121 114 -6 22 -11 77 -11
123 0 97 11 104 55 34z M3372 2189 c-191 -95 -209 -111 -157 -139 33 -18 33
-31 -10 -285 -84 -493 -148 -657 -351 -901 -63 -76 -114 -143 -114 -151 0 -15
30 -16 198 -6 l113 6 37 54 c85 124 224 308 239 317 24 13 206 86 209 84 2 -3
44 -115 94 -255 12 -35 26 -63 31 -63 10 0 123 117 168 174 34 43 37 24 -52
296 -103 311 -164 573 -198 848 -7 57 -15 105 -18 107 -4 2 -89 -37 -189 -86z
m58 -466 c16 -60 52 -283 47 -296 -6 -15 -136 -72 -144 -63 -3 3 2 29 11 58 9
29 26 107 37 173 31 188 31 189 49 128z M1508 2182 c-98 -48 -177 -92 -178
-98 0 -7 16 -24 36 -39 42 -32 41 -12 5 -255 -21 -139 -26 -164 -67 -335 -64
-274 -157 -443 -376 -683 -26 -30 -45 -58 -42 -64 11 -17 305 -1 325 18 9 8
70 91 135 184 l118 169 65 27 c36 14 87 35 113 45 l48 19 13 -33 c8 -17 33
-89 57 -160 23 -70 48 -127 54 -127 12 0 88 76 160 159 45 51 45 45 -18 241
-85 263 -104 326 -130 420 -48 178 -85 365 -91 460 -8 124 -12 140 -33 139 -9
0 -97 -40 -194 -87z m103 -563 c17 -79 31 -155 32 -169 2 -26 -2 -28 -108 -75
l-55 -25 0 24 c0 13 7 43 15 67 9 24 27 100 41 169 28 142 34 163 41 157 2 -3
18 -70 34 -148z M2489 2206 c-70 -35 -150 -72 -177 -84 -28 -12 -54 -27 -58
-33 -3 -6 8 -26 26 -44 32 -33 32 -34 26 -102 -57 -559 -165 -854 -412 -1123
-64 -70 -90 -108 -80 -117 8 -8 275 -3 300 6 12 5 51 53 88 107 153 231 162
258 268 823 27 144 34 170 44 160 2 -2 18 -112 35 -244 44 -335 47 -351 107
-522 62 -179 70 -196 88 -186 28 18 177 187 182 209 4 14 -19 99 -59 226 -132
408 -199 684 -223 921 -4 39 -11 67 -18 66 -6 0 -68 -29 -137 -63z M209 2132
l-104 -88 -2 -692 c-2 -456 1 -693 8 -697 9 -6 172 98 212 135 17 15 18 43 18
391 -1 241 3 368 9 358 5 -9 21 -49 36 -90 38 -106 131 -299 144 -299 12 0 76
133 151 315 58 141 74 162 65 90 -7 -63 -28 -776 -22 -782 9 -10 204 120 234
156 9 11 12 150 12 617 l0 602 -45 6 c-143 19 -132 20 -146 -5 -15 -28 -189
-425 -227 -517 -14 -34 -28 -59 -32 -55 -7 9 -43 103 -99 258 -36 103 -61 208
-76 317 -10 79 -20 77 -136 -20z M2400 430 c-15 -37 -23 -37 -50 -3 -14 18
-24 23 -31 16 -16 -16 21 -53 57 -58 36 -4 68 22 62 51 -5 29 -25 26 -38 -6z
M1848 429 c-11 -6 -18 -22 -18 -39 0 -16 -25 -93 -55 -172 -67 -174 -65 -162
-38 -166 18 -3 23 3 29 35 12 66 19 73 78 73 61 0 76 -12 85 -68 6 -35 9 -37
45 -40 52 -4 63 9 38 45 -11 15 -41 93 -67 173 -57 175 -61 181 -97 159z m26
-166 c23 -68 22 -73 -24 -73 -35 0 -40 3 -40 22 0 31 31 109 40 103 5 -3 15
-26 24 -52z M2239 433 c0 -4 -1 -90 -2 -191 -2 -180 -2 -183 20 -188 43 -11
58 -1 58 39 0 32 10 51 64 117 36 43 68 77 72 75 4 -3 4 -54 1 -114 -5 -105
-4 -109 17 -116 11 -3 29 -4 39 -1 15 5 17 22 14 193 -2 103 -5 189 -7 192 -9
8 -37 -24 -60 -68 -13 -25 -50 -77 -82 -116 l-58 -70 -5 101 c-3 66 -10 107
-19 118 -18 21 -51 40 -52 29z M2777 433 c-4 -3 -7 -80 -7 -170 0 -94 -4 -173
-10 -184 -11 -20 -13 -19 67 -23 15 -1 17 10 14 95 -2 93 -2 96 21 102 44 12
96 8 102 -9 9 -22 7 -103 -3 -145 -8 -36 -8 -37 26 -42 42 -7 66 1 59 20 -3 8
-6 91 -6 184 l0 169 -41 0 -42 0 7 -61 c9 -73 -1 -89 -54 -89 -66 0 -70 5 -70
80 0 53 -4 69 -16 74 -20 8 -39 8 -47 -1z M1193 363 c4 -38 7 -82 7 -100 0
-52 23 -67 97 -60 60 6 63 5 69 -17 3 -13 4 -48 2 -77 l-3 -54 35 -3 c44 -3
70 12 52 30 -8 8 -12 60 -12 180 l0 168 -40 0 -39 0 6 -83 c6 -94 -3 -111 -59
-105 l-33 3 -3 93 -3 92 -41 0 -41 0 6 -67z M3411 416 c-6 -7 -9 -20 -6 -29 6
-14 -59 -211 -99 -300 l-17 -38 28 3 c24 3 29 8 33 43 8 59 15 65 76 65 59 0
58 1 80 -75 8 -25 15 -31 43 -33 45 -5 56 9 38 44 -8 16 -36 92 -62 169 -26
77 -52 146 -57 153 -14 16 -43 15 -57 -2z m37 -138 c27 -89 27 -88 -24 -88
-45 0 -46 1 -39 27 11 46 33 93 44 93 5 0 14 -15 19 -32z M3892 415 c-35 -15
-56 -56 -47 -92 3 -12 20 -36 38 -53 l32 -30 -29 -55 c-15 -30 -43 -66 -62
-80 -31 -24 -46 -55 -25 -55 20 0 102 74 150 135 29 36 57 63 62 59 7 -4 9
-42 8 -98 l-3 -91 44 0 c36 0 44 3 40 15 -3 8 -5 93 -5 188 l0 172 -85 0 c-50
-1 -98 -7 -118 -15z m116 -14 c9 -5 12 -25 10 -62 -3 -52 -4 -54 -34 -57 -39
-4 -78 38 -68 72 12 43 60 68 92 47z"/>
</g>
</svg>
